<svg xmlns="http://www.w3.org/2000/svg" viewBox="0 0 210 60" fill="none">
  <g transform="translate(4 4) scale(0.52)">
    <g stroke="#16a34a" stroke-width="1.8" stroke-linejoin="round">
      <path d="M34 20 L30 52 L50 66 L70 52 L60 24" />
      <path d="M30 52 L50 40 L70 52" />
      <path d="M50 40 L50 66" />
      <path d="M50 66 L42 84 M50 66 L58 84" />
      <path d="M60 24 L62 40 L70 52" />
    </g>
    <g fill="#c8922a">
      <circle cx="34" cy="20" r="2" />
      <circle cx="60" cy="24" r="2" />
      <circle cx="30" cy="52" r="2" />
      <circle cx="70" cy="52" r="2" />
      <circle cx="50" cy="40" r="3.2" />
      <circle cx="50" cy="66" r="2" />
      <circle cx="42" cy="84" r="2" />
      <circle cx="58" cy="84" r="2" />
      <circle cx="62" cy="40" r="2" />
    </g>
  </g>
  <text x="62" y="40" font-family=""Manrope", "Inter", -apple-system, sans-serif" font-size="32" font-weight="700" letter-spacing="-0.5" fill="#f5f5f7">Sungura<tspan fill="#16a34a">Labs</tspan></text>
</svg>